<?xml version="1.0" encoding="utf-8"?>
<!-- Generator: Adobe Illustrator 22.0.0, SVG Export Plug-In . SVG Version: 6.00 Build 0)  -->
<svg version="1.1" id="Calque_1" xmlns="http://www.w3.org/2000/svg" xmlns:xlink="http://www.w3.org/1999/xlink" x="0px" y="0px"
	 viewBox="0 0 432 432" style="enable-background:new 0 0 432 432;" xml:space="preserve">
<style type="text/css">
	.st0{fill:#100A13;}
	.st1{fill:#BB8B6A;}
	.st2{fill:#DDBEC9;}
	.st3{fill:#DFA1B6;}
	.st4{fill:#F2EDED;}
	.st5{fill:#B73A30;}
	.st6{fill:#21381D;}
	.st7{fill:#355932;}
	.st8{fill:#CB9742;}
	.st9{fill:#912A27;}
	.st10{fill:#CF394B;}
	.st11{fill:#E6E6E4;}
	.st12{fill:#191B1F;}
	.st13{fill:#5C8D4B;}
	.st14{fill:#263B2A;}
	.st15{fill:#C13462;}
	.st16{fill:#E5D758;}
	.st17{fill:#4D9F54;}
	.st18{fill:#C43537;}
	.st19{fill:#ECEAE5;}
	.st20{fill:#E2C2A2;}
	.st21{fill:#A8302D;}
	.st22{fill:#F5F4F4;}
	.st23{fill:#D5B392;}
	.st24{fill:#221F20;}
	.st25{fill:#F2F1F0;}
	.st26{fill:#1B3B1F;}
	.st27{fill:#295A33;}
	.st28{fill:#DCBB9E;}
	.st29{fill:#EDB9C5;}
	.st30{fill:#8E2927;}
	.st31{fill:#2D6942;}
	.st32{fill:#8E2B34;}
	.st33{fill:#490C19;}
	.st34{fill:#BE3430;}
	.st35{fill:#202124;}
	.st36{fill:#BDDFE1;}
	.st37{fill:#E6E5E4;}
	.st38{fill:#040304;}
	.st39{fill:#E9963E;}
	.st40{fill:#A98C7C;}
	.st41{fill:#8A6C5D;}
	.st42{fill:#242122;}
	.st43{fill:#FFFFFF;}
	.st44{fill:#C9363B;}
	.st45{fill:#A52F39;}
	.st46{fill:#93766B;}
	.st47{fill:#9B7F71;}
	.st48{fill:#103B24;}
	.st49{fill:#345730;}
	.st50{fill:#BBA585;}
	.st51{fill:#AF3134;}
	.st52{fill:#F2EDE5;}
	.st53{fill:#98BC53;}
	.st54{fill:#D7AB46;}
	.st55{fill:#BAA485;}
	.st56{fill:#47291D;}
	.st57{fill:#B2322F;}
	.st58{fill:#953129;}
	.st59{fill:#20090C;}
	.st60{fill:#E0D2CE;}
	.st61{fill:#DAAE47;}
	.st62{fill:#5B4533;}
	.st63{fill:#428C4D;}
	.st64{fill:#C7393E;}
	.st65{fill:#3B4824;}
	.st66{fill:#46572E;}
	.st67{fill:#C83631;}
	.st68{fill:#8E2926;}
	.st69{fill:#D2BB9F;}
	.st70{fill:#E6D7C6;}
	.st71{fill:#BDA284;}
	.st72{fill:#832529;}
	.st73{fill:#9F2E2B;}
	.st74{fill:#459558;}
	.st75{fill:#DB453F;}
	.st76{fill:#D5D9B9;}
	.st77{fill:#E6E6D6;}
	.st78{fill:#E6EDC3;}
	.st79{fill:#AFD9DF;}
	.st80{fill:#5BAFB9;}
	.st81{fill:#7F7165;}
	.st82{fill:#50433C;}
	.st83{fill:#B2B7A0;}
	.st84{fill:#B1977E;}
	.st85{fill:#D6B88D;}
	.st86{fill:#A07965;}
	.st87{fill:#A7A5A0;}
	.st88{fill:#979984;}
	.st89{fill:#4F4F4B;}
	.st90{fill:#646D74;}
	.st91{fill:#545B52;}
	.st92{fill:#915452;}
	.st93{fill:#623D3E;}
	.st94{fill:#4E423E;}
	.st95{fill:#978F87;}
	.st96{fill:#732E24;}
	.st97{fill:#8F2A27;}
	.st98{fill:#AA8750;}
	.st99{fill:#677565;}
	.st100{fill:#4F3717;}
	.st101{fill:#799375;}
	.st102{fill:#D07783;}
	.st103{fill:#9A4655;}
	.st104{fill:#ECC4CB;}
	.st105{fill:#B7B86F;}
	.st106{fill:#5A5D34;}
	.st107{fill:#D1A697;}
	.st108{fill:#CBBDA4;}
	.st109{fill:#A16560;}
	.st110{fill:#330024;}
	.st111{fill:#3C4A43;}
	.st112{fill:#631735;}
	.st113{fill:#6A474C;}
	.st114{fill:#E5BC9F;}
	.st115{fill:#E8D3CC;}
	.st116{fill:#D16C64;}
	.st117{fill:#749098;}
	.st118{fill:#E69598;}
</style>
<path class="st86" d="M295.7,147.4c2.3-0.5,4.2,0.3,5.8,1.6c0.6,0.5,1.3,1,1.9,1.6c1,1,0.7,2.2-0.7,2.5c-3.2,0.8-6.3,1.9-9.4,3.1
	c-2.3,0.9-4.8,1.5-7.3,1.8c-0.1,0-0.2,0-0.3,0.1c0.1,0.1,0.2,0.2,0.3,0.3c5,3.2,10.3,5.7,16.1,6.9c1.7,0.3,3.4,0.6,5.2,0.6
	c1.7,0,3.4-0.4,4.9-1.3c1.2-0.7,2.2-1.7,2.8-3c0.3-0.7,0.4-1.4,0-2.1c-0.1-0.1-0.1-0.2-0.2-0.3c-0.1,0-0.1,0-0.2,0.1
	c0,0.3-0.1,0.5-0.1,0.8c-0.2,1.4-1.3,2.6-2.5,2.9c-1.3,0.3-2.7-0.3-3.5-1.4c-0.6-0.9-0.7-1.9-0.4-2.9c0.7-2,2.1-3.1,4.1-3.4
	c1.7-0.3,3.3,0.1,4.7,1.2c1.7,1.3,2.3,3,1.8,5.1c-0.5,2.3-1.9,4-3.7,5.3c-2.1,1.5-4.6,2.2-7.2,2.3c-1.1,0-2.2-0.1-3.3-0.1
	c0,0,0,0.1,0,0.1c1.8,1.1,3.6,2.2,5.7,2.8c2.1,0.6,4.2,0.4,6.3-0.1c2.4-0.5,4.6-1.5,6.7-2.8c0.5-0.3,1.1-0.6,1.7-0.9
	c0.3-0.1,0.6-0.2,0.8-0.2c0.7-0.1,1.3-0.1,1.7,0.6c0.4,0.6,0.3,1.2,0,1.7c-0.3,0.5-0.5,1-0.7,1.5c-0.5,1.2-1.3,2.2-2.3,3
	c-0.1,0.1-0.2,0.2-0.4,0.3c1.1,0.5,2.2,1,3.3,1.2c0.5,0.1,1,0.1,1.5,0.2c0.2,0,0.5,0.1,0.7,0.2c0.9,0.4,1,1.4,0.2,2
	c-0.2,0.1-0.4,0.2-0.6,0.3c-1.7,0.4-3.3,0.9-5,1.2c-2,0.3-3.9,0.1-5.9-0.3c-2.8-0.6-5.5-1.6-8-3.1c-1.5-0.9-3-1.6-4.5-2.4
	c-0.1,0-0.1,0-0.3-0.1c0.2,0.2,0.3,0.4,0.4,0.5c2.8,3.3,5.6,6.6,8.3,10c2.5,3.1,5.2,5.9,8.3,8.4c2.1,1.6,4.4,2.7,7,3
	c1.8,0.3,3.5-0.9,3.9-2.7c0.2-1.1-0.2-2-0.9-2.9c-0.2,0.3-0.2,0.6-0.4,0.8c-0.8,1.5-2.6,2.1-4.1,1.3c-1.7-0.8-2.3-2.6-1.4-4.2
	c1.2-2.4,4.2-3.4,6.6-2.1c2.5,1.3,3.9,3.4,4.1,6.2c0.2,2.2-0.8,4-2.5,5.3c-2,1.6-4.3,2-6.7,1.5c-2.6-0.5-5-1.6-7.1-3.2
	c-0.3-0.2-0.5-0.4-0.8-0.6c-0.5,1.1-0.9,2.1-1.3,3.1c-0.2,0.6-0.6,0.9-1.1,0.9c-0.5,0-0.9-0.3-1.1-0.8c-0.3-0.8-0.6-1.7-0.7-2.5
	c-0.3-1.7-0.9-3.2-1.9-4.5c-1.1-1.4-2.1-2.9-3.2-4.3c-2.4-3-4.8-6-7.3-9c-0.3-0.3-0.5-0.6-0.9-0.9c0,0.1,0,0.3,0.1,0.4
	c1.2,2.7,2,5.5,2.5,8.4c0.1,0.5,0.2,1,0.4,1.4c1.1,2.9,2.3,5.7,4,8.4c0.9,1.5,2,2.9,3,4.2c1.1,1.4,2.4,2.4,3.9,3.3
	c0.2,0.1,0.4,0.2,0.5,0.3c0.5,0.4,0.8,1,0.6,1.6c-0.2,0.6-0.7,0.9-1.3,1c-0.1,0-0.3,0-0.4,0c-1.7-0.4-3.4-0.6-5.1-1.1
	c-2-0.6-3.5-1.8-4.8-3.4c-0.6-0.8-1.3-1.7-1.9-2.6c-0.1,0.2-0.3,0.4-0.4,0.6c-1.5,2.9-3.8,5-6.6,6.6c-1.9,1.1-4,1.4-6.2,1.1
	c-0.7-0.1-1.2-0.4-1.5-1.1c-0.2-0.7,0.1-1.2,0.6-1.7c3.6-3.5,5.6-7.8,6-12.8c0.4-4.6-0.5-8.9-2.3-13.1c-0.6-1.3-1.2-2.6-1.8-3.8
	c-0.1,0-0.1,0-0.2,0.1c0.2,0.9,0.3,1.7,0.5,2.6c0.7,3.6,0.5,7.1,0,10.7c-0.6,3.7-1.7,7.2-3.5,10.5c-1.1,2-2.4,3.9-4.1,5.4
	c-0.4,0.4-0.8,1-1.2,1.4c-1,1.1-2,2.2-3.1,3.3c-3,3.1-5.8,6.3-7.9,10c-0.8,1.4-1.5,2.9-2.3,4.4c-0.4,0.8-1,1.3-1.9,1.2
	c-0.6,0-1.1-0.3-1.4-0.8c-0.3-0.6-0.7-1.2-0.8-1.8c-0.9-3.8-0.3-7.4,2.2-10.5c0.1-0.2,0.2-0.3,0.4-0.6c-0.3,0-0.5,0-0.7,0
	c-3.1,0.2-6.2,0-9.1-1.3c-1.4-0.6-2.8-1.1-4.2-1.7c-1.5-0.6-2.8-1.5-4-2.5c-1.1-0.9-2.2-1.9-3.3-2.8c-0.7-0.6-1.3-1.2-2.1-1.8
	c-2-1.4-4.1-2.8-6.1-4.2c-1.1-0.8-2.3-1.4-3.6-1.8c-0.4-0.1-0.9-0.3-1.3-0.6c-0.5-0.3-0.8-0.9-0.7-1.5c0.1-0.7,0.5-1,1.1-1.2
	c1.9-0.7,3.8-0.8,5.7-0.4c2.1,0.4,4,1.1,5.8,2.3c0.2,0.2,0.5,0.3,0.8,0.5c0-0.4-0.1-0.6-0.1-0.9c-0.3-6.6,2-11.9,7.7-15.6
	c2-1.3,4.3-2,6.7-1.9c2.5,0.1,5,0.7,7.1,2.2c2.7,1.9,4.6,5.6,4,9.7c0.3-0.1,0.5-0.3,0.8-0.4c1.5-0.7,3.1-1.1,4.7-0.8
	c2.6,0.4,5,3,5.1,5.5c0.1,2.2-2,4.4-4.3,4.1c-1.3-0.1-2.4-1.1-2.7-2.3c-0.3-1.2,0.3-2.5,1.4-3.1c0.2-0.1,0.5-0.2,0.8-0.4
	c-0.5-0.5-1.1-0.7-1.7-0.6c-3.6,0.5-5.5,3.6-4.9,6.4c0.2,0.7,0.3,1.5,0.6,2.2c0.6,1.5,1.8,2.5,3.4,3c2.3,0.7,4.4,0.3,6.5-0.8
	c1.3-0.7,2.4-1.7,3.1-3.1c1.3-2.6,2.4-5.2,3-8.1c0.7-3.4,1.2-6.8,0.8-10.3c-0.3-2.8-1-5.5-2.2-8c-1-2.2-2.3-4.2-3.7-6.1
	c-0.1-0.2-0.3-0.3-0.5-0.5c-0.1,0.6-0.2,1.2-0.3,1.7c-0.4,1.8-1.1,3.5-2.2,5c-0.4,0.5-0.9,1-1.4,1.4c-0.4,0.3-0.9,0.4-1.4,0.5
	c-1,0-1.6-0.8-1.2-1.7c0.2-0.6,0.5-1.1,0.7-1.6c0.6-1.4,0.8-2.8,0.5-4.3c-0.2-1.2-0.5-2.3-0.9-3.6c-0.3,0.9-0.6,1.6-0.8,2.3
	c-0.3,0.9-0.9,1.7-1.7,2.3c-0.7,0.4-1.4,0.6-2.2,0.3c-0.5-0.2-0.8-0.5-0.9-1c-0.1-0.5,0.2-0.9,0.7-1c0.5-0.2,0.7-0.7,0.9-1.2
	c0.6-1.8,0.4-3.6-0.4-5.3c-0.6-1.3-1.4-2.3-2.6-3.1c-3.4-2.4-6.4-5.2-9.2-8.2c-1-1.1-1.9-2.4-2.7-3.6c-0.4-0.6-0.7-1.3-1-2
	c-0.5-0.9,0.3-2.1,1.6-1.8c0.6,0.1,1.2,0.5,1.6,0.8c0.8,0.6,1.6,1.3,2.3,2.1c3,3.1,6.5,5.5,10.3,7.5c2.3,1.3,4.8,2,7.3,2.7
	c1.2,0.3,2.5,0.3,3.7,0.1c0.8-0.1,1.6-0.2,2.3-0.4c1.7-0.4,3.1-1.3,4.2-2.7c1.6-2,1.5-4.4-0.1-6.3c-0.2-0.2-0.4-0.4-0.6-0.7
	c-0.7-0.9-0.4-1.9,0.6-2.3c1-0.4,2.1-0.4,3.1,0c2.1,0.7,3.5,2.7,3.5,5C295.8,145.8,295.7,146.6,295.7,147.4z M266.4,181.7
	c-0.2-0.2-0.2-0.3-0.4-0.4c-1.6-1.3-3.5-1.8-5.5-1.7c-2.2,0.1-4.1,0.9-5.7,2.4c-3.9,3.6-5.3,8-4.2,13.3c0,0.1,0.1,0.2,0.3,0.4
	c0.2-0.3,0.3-0.5,0.5-0.7c0.9-0.8,1.8-1.6,2.8-2.3c0.9-0.6,1.9-1,2.9-1.4c0.7-0.3,1.4,0.1,1.8,0.7c0.3,0.6,0.1,1.1-0.5,1.7
	c-0.4,0.4-0.8,0.8-1.1,1.2c-0.8,1.3-1.1,2.8-1.3,4.3c-0.3,1.9,0,3.7,1,5.3c0.2,0.3,0.4,0.6,0.7,0.8c2.2,1.5,4.6,2.5,7.2,2.4
	c1.8-0.1,3.5-0.2,5.3-0.5c2.1-0.4,4.2-0.8,6.1-1.8c0.5-0.3,1.1-0.6,1.6-0.9c-2.9-0.3-5.7-0.9-7.6-3.4c-1.8-2.3-2.5-5-2-8.1
	c-0.4,0.2-0.7,0.3-1,0.4c-1,0.4-1.9,0.5-2.9,0.3c-2.1-0.5-3.4-1.9-4.2-3.8c-1.4-3.3,0.6-7.3,4.1-8.1
	C264.8,181.8,265.6,181.8,266.4,181.7z"/>
<path class="st83" d="M97.8,99.8c-0.1,0.3-0.2,0.5-0.2,0.6c-0.5,1.3-1.7,1.9-3,1.8c-1.4-0.2-2.4-1.3-2.6-2.7c-0.2-2.2,1.9-4.9,5-3.7
	c2.2,0.9,3.4,2.9,3.1,5.3c-0.3,2.6-2.4,5.1-4.9,5.8c-2.7,0.7-4.9-0.3-6.7-2.3c-0.6-0.7-1-1.5-1.4-2.3c-0.1-0.2-0.2-0.4-0.4-0.5
	c0.1,0.6,0.1,1.1,0.2,1.7c0.6,3.4,2.2,6.1,4.9,8.2c3.4,2.5,6.9,2.5,10.6,0.7c1.4-0.7,2.5-1.6,3.4-2.9c1-1.4,1.4-3,1.3-4.7
	c0-0.2,0-0.4,0-0.6c0-0.7,0.7-1.1,1.2-0.6c0.4,0.3,0.7,0.7,0.9,1.2c0.5,1,0.4,2.1,0.3,3.1c-0.2,1.5-0.9,2.9-1.8,4.1
	c-3.3,4.3-9.8,6-14.8,3.8c-1.2-0.5-2.3-1.3-3.3-2.1c-0.2-0.2-0.4-0.4-0.7-0.6c-0.1,0.3-0.2,0.5-0.3,0.8c-0.9,2.3-3.6,2.8-5.2,0.9
	c-0.4-0.5-0.7-1.1-0.9-1.7c-0.7-1.8-0.9-3.7-0.6-5.6c0.3-1.9,0.7-3.9,1.2-5.8c0.4-1.7,0.9-3.3,1.1-5.1c0.9-5.6,3.2-10.5,7.3-14.6
	c0.1-0.1,0.2-0.3,0.4-0.5c-0.3,0.1-0.5,0.1-0.7,0.1c-1.4,0.5-2.9,0.7-4.3,0.8c-3.2,0.3-6.5-1.9-7.3-4.8c-1-3.6,1.9-7.4,5.5-7.3
	c1.1,0,2.1,0.5,2.8,1.3c1,1.1,1,2.9-0.1,4.1c-1.4,1.6-3.8,2.2-5.6,0.3c-0.1-0.1-0.2-0.2-0.4-0.4c-0.4,0.9-0.1,1.8,0.4,2.5
	c1,1.6,2.5,2.3,4.3,2.3c1.2,0,2.5-0.2,3.6-0.6c2.4-0.8,4.8-1.7,7.3-2.6c-0.3-0.2-0.4-0.4-0.6-0.5c-1.7-1.3-2.8-3-3.1-5.1
	c-0.4-2.4,1-4.6,3.3-5.2c0.8-0.2,1.7-0.1,2.3,0.4c0.3,0.3,0.6,0.6,0.7,1c0.3,0.7,0.1,1.4-0.4,1.8c-0.5,0.4-1.3,0.3-1.9-0.1
	c-0.1-0.1-0.2-0.2-0.3-0.3c-0.9,1-0.8,1.8,0.2,2.6c1,0.8,2.3,1.2,3.5,1.4c1.3,0.2,2.7,0.4,4,0.5c0.5,0.1,0.9,0.1,1.4,0.2
	c1.4,0.1,2.9,0.3,4.3,0.3c4.5,0.2,8.7,1.5,12.7,3.4c5.2,2.5,10,5.6,14.9,8.7c6.4,4.1,13,8.1,19.7,11.8c1,0.6,2.1,1.2,3.2,1.6
	c2.2,0.8,4.4,0.8,6.3-0.6c1.6-1.1,2.1-2.8,2-4.7c-0.1-1.8-0.8-3.4-2.2-4.7c-0.1-0.1-0.3-0.2-0.6-0.4c0.1,0.3,0.1,0.6,0.2,0.9
	c0.3,2.3-1.8,4.1-4,3.5c-1.9-0.5-3-2.4-2.5-4.2c0.5-1.9,2.2-3.2,4.1-3.3c2.1-0.1,3.8,0.8,5.1,2.4c1.9,2.3,2.8,4.9,2.3,7.9
	c-0.5,2.6-1.9,4.4-4.4,5.3c-0.1,0-0.2,0.1-0.4,0.2c0.2,0.1,0.4,0.2,0.5,0.2c4.4,1,8.9,1.5,13.4,1c1.9-0.2,3.8-0.7,5.5-1.7
	c1.2-0.7,2-1.7,2.5-3c0.3-0.8,0.3-1.6-0.1-2.3c-0.6-1.2-1.5-2.1-2.8-2.4c-0.5-0.1-1.1-0.2-1.7,0.2c0.2,0.2,0.3,0.3,0.5,0.4
	c1,0.9,1.1,2.3,0.3,3.3c-0.8,1-2.3,1.2-3.3,0.5c-1.3-0.9-1.7-2.8-0.8-4.4c0.8-1.5,2.2-2.2,3.8-2.4c2.1-0.2,3.7,0.9,5.1,2.4
	c0.2,0.2,0.4,0.5,0.6,0.8c0.1-0.1,0.2-0.1,0.2-0.2c1.2-1.9,3-2.9,5.2-3.3c4.7-1,8.5,1.8,10.1,4.5c1.6,2.6,2.2,5.5,1.9,8.6
	c-0.2,1.6-0.4,3.1-1,4.5c-0.9,2.3-2.5,4.1-4.5,5.5c-3.3,2.3-6.9,3.1-10.8,2.7c-3-0.3-5.7-1.4-8.5-2.4c-6.6-2.5-12.9-5.6-19.2-8.6
	c-0.2-0.1-0.4-0.2-0.6-0.3c0,0-0.1,0-0.2,0c0.2,0.2,0.4,0.4,0.5,0.6c3.2,3.4,5.7,7.3,7.6,11.6c0.7,1.6,1,3.2,1.3,4.9
	c0.1,0.7,0.1,1.5-0.3,2.2c-0.7,1.5-2.2,1.9-3.4,0.9c-0.4-0.3-0.8-0.7-1.1-1.1c-0.7-1.1-1.3-2.1-1.9-3.3c-1.1-2.3-2.1-4.7-3.2-7
	c-1.5-3.3-3.5-6.2-5.8-8.9c-1.1-1.2-2.2-2.5-3.3-3.7c0,0-0.1,0.1-0.1,0.1c0.1,0.2,0.3,0.4,0.4,0.6c2.2,2.6,4.2,5.4,5.8,8.5
	c0.3,0.7,0.6,1.3,0.8,2c0.1,0.4,0.2,0.9,0.1,1.4c-0.1,0.8-0.9,1.2-1.7,0.9c-0.3-0.1-0.7-0.4-0.9-0.6c-0.4-0.5-0.8-1-1.1-1.6
	c-2.2-4.7-5.5-8.5-9.2-12.1c-0.9-0.8-1.7-1.7-2.7-2.4c0.1,0.3,0.3,0.5,0.4,0.8c1.2,2.2,2.3,4.4,2.9,6.8c0.2,0.7,0.3,1.4,0.3,2.1
	c0.1,0.8-0.2,1.3-0.8,1.5c-0.6,0.2-1.1,0-1.6-0.7c-3.2-3.9-5.9-8-8.2-12.4c-1.2-2.2-2.6-4.2-3.9-6.3c-0.1-0.2-0.3-0.4-0.6-0.7
	c-0.1,0.7-0.2,1.2-0.3,1.8c-0.6,2.5-1.7,4.7-3.8,6.2c-2.2,1.7-4.7,2.5-7.5,2.2c-1-0.1-2-0.3-3.1-0.3c-0.4,0-0.9,0.1-1.4,0.3
	c-0.6,0.3-1.2,0.6-1.8,0.9c-0.4,0.2-0.8,0.4-1.1,0.4c-1,0.1-1.7-0.7-1.4-1.7c0.3-1.2,0.9-2.2,2.1-2.7c0.1-0.1,0.2-0.1,0.3-0.2
	c-0.3-0.7-0.6-1.4-0.7-2.1c-0.1-0.5-0.1-1.1,0-1.6c0.1-0.6,0.5-0.9,1-1c0.5,0,0.9,0.3,1.1,0.7c0.2,0.5,0.4,0.9,0.6,1.4
	c0.8,1.6,2,2.9,3.7,3.6c1.7,0.6,4.3,0,5.4-1c-0.4-0.1-0.8-0.1-1.1-0.2c-2-0.5-3.2-1.9-3.7-3.9c-0.2-0.6-0.1-1.2,0.2-1.8
	c0.5-1,1.4-1.6,2.5-1.8c2.2-0.4,3.8,1.8,3,3.4c-0.1,0.1-0.1,0.3-0.2,0.5c0.9-0.5,1.3-1.3,1.4-2.1c0.2-1.5-0.1-2.9-0.8-4.2
	c-0.8-1.4-1.9-2.6-3.4-3.4c-2.6-1.5-5.1-2.9-7.9-3.9c-3.2-1.2-6.6-1.6-10-1.3c-4.1,0.5-7.9,1.9-11.2,4.7c-2.1,1.8-3.9,3.8-5.3,6.1
	c-0.7,1.1-1.1,2.3-1.3,3.6c-0.5,2.5-0.7,5.1-0.1,7.6c0.3,1.4,0.9,2.7,2,3.7c1.5,1.4,3.4,1.7,5,0.7c1.4-0.8,2.2-2.2,2.3-3.8
	C98,100.4,97.9,100.2,97.8,99.8z M199,95.4c0.1,0.2,0.2,0.4,0.3,0.5c0.8,1.7,0.6,3.4-0.6,4.9c-1.9,2.2-5.5,2.2-7.6,0
	c-0.2-0.2-0.4-0.5-0.7-0.7c-1.2,2-2.9,3.1-4.9,3.9c-1.5,0.6-3.1,0.9-4.7,1c-2.9,0.3-5.7,0.1-8.5-0.3c-0.3,0-0.7-0.1-1-0.1
	c0.2,0.3,0.4,0.4,0.6,0.5c1.1,0.5,2.2,1,3.3,1.5c4.6,2.1,9.3,4.1,14.1,5.6c2,0.6,4,0.9,6.1,0.5c4.1-0.8,6.7-3.1,7.9-7.2
	c0.7-2.5,0.6-4.9-0.7-7.2C201.8,96.9,200.6,95.9,199,95.4z"/>
<path class="st87" d="M274.5,241.6c2.7-0.8,5.3-1.6,8-2.3c4-1.1,8-2,12.1-3c3-0.8,5.9-1.6,8.9-2.4c3.8-0.9,7.6-1.6,11.5-2.1
	c4-0.5,7.9-1,11.9-1.3c3.4-0.3,6.8-0.4,10.1-0.1c2.5,0.2,5.1,0.4,7.6,0.8c4.1,0.6,8,1.9,11.7,3.8c3.2,1.7,5.4,4.2,6.7,7.6
	c0.5,1.3,0.6,2.6,0.4,4c-0.7,3.5-3.6,5-6.1,5.2c-2.3,0.2-4.4-0.5-6.3-1.8c-1.3-0.9-2.5-1.8-3.8-2.7c-3.9-2.9-8.2-5-12.9-6.3
	c-0.2,0-0.3-0.1-0.6,0c0.2,0.2,0.4,0.3,0.6,0.5c1.7,1.3,3.1,2.8,4.3,4.6c0.8,1.2,1.4,2.4,1.7,3.8c0.5,2.3-0.7,4.3-2.8,4.9
	c-0.9,0.2-1.9,0.1-2.8-0.3c-0.9-0.4-1.7-1.1-2.4-1.8c-0.4-0.5-0.8-1-1.2-1.5c-0.5-0.6-0.9-1.2-1.4-1.7c-1.6-1.8-3.4-3.3-5.8-4.2
	c-4.1-1.6-8.3-2.6-12.6-3.1c-4.4-0.5-8.7-0.2-13,0.4c-3,0.4-5.9,1.3-8.9,2c-3.9,0.9-7.6,2.4-11.4,3.6c-5.7,1.8-11.4,3.6-17.1,5.2
	c-2.8,0.8-5.8,1.3-8.7,1.7c-2.5,0.3-5,0.5-7.6,0.5c-4,0-7.8-1.1-11.2-3.3c-0.8-0.5-1.4-1.1-2.1-1.8c-0.4-0.4-0.6-0.9-0.5-1.5
	c0.2-1,1.4-1.6,2.5-1.1c0.7,0.3,1.3,0.6,2,1c2.9,1.5,6,2.1,9.2,1.9c3.8-0.2,7.5-1.1,10.9-3c2.5-1.4,4.6-3.2,6.5-5.3
	c1-1.1,2-2.3,3.1-3.4c1-1,2-2,3.1-2.8c0.9-0.7,2-1.2,3.3-1.1c1.6,0,2.8,0.8,3.4,2.4c0.4,1.1,0.3,2.2,0.1,3.3
	C274.8,240.8,274.6,241.1,274.5,241.6z"/>
<path class="st88" d="M176.1,240.8c-0.3-0.3-0.6-0.5-0.9-0.8c-2.4-2.4-4.1-5.2-4.9-8.6c-0.3-1.4-0.3-2.8,0.4-4.1
	c1.5-2.7,4.6-3.2,6.7-0.9c0.7,0.7,1.2,1.5,1.7,2.4c1.5,2.3,2.8,4.6,4.4,6.8c3.1,4.3,7.1,7.5,12.1,9.2c3,1,6.1,1.5,9.3,1.4
	c2-0.1,3.9-0.5,5.8-1.2c0.4-0.1,0.7-0.2,1.1-0.2c0.7,0,1.2,0.5,1.4,1.1c0.2,0.6-0.1,1.2-0.7,1.6c-0.1,0.1-0.3,0.1-0.4,0.2
	c-3.3,1.2-6.7,2-10.2,2.2c-3.5,0.3-6.9-0.1-10.3-1.1c-2-0.6-4-1.3-6-1.9c-2.4-0.7-4.8-1.4-7.1-2c-0.1,0-0.2-0.1-0.3-0.1
	c-1.9,0.5-3.9,0.3-5.9,0.4c-2.5,0.1-5,0.6-7.5,1.3c-1.8,0.5-3.5,1.1-5.3,1.5c-1.1,0.3-2.2,0.4-3.3,0.6c-1.6,0.2-3.4-1.4-2.7-3.4
	c0.3-0.8,0.6-1.6,1-2.3c0.9-1.4,2-2.6,3.4-3.6c0.2-0.1,0.3-0.2,0.5-0.4c-1-0.5-2-0.7-3.1-0.6c-2.4,0.4-4.6,1.2-6.7,2.5
	c-2.2,1.4-4.4,2.9-6.6,4.4c-1.2,0.8-2.4,1.5-3.6,2.2c-1.1,0.6-2.3,1-3.6,0.9c-2,0-3.4-1.3-3.6-3.3c-0.1-1.2,0.2-2.3,0.7-3.4
	c1.3-2.8,3.5-4.7,5.9-6.4c0.2-0.2,0.5-0.3,0.8-0.6c-0.5-0.1-0.9-0.2-1.2-0.2c-4.4-0.2-8.7,0.5-12.7,2.5c-2.7,1.4-5,3.2-7.1,5.3
	c-1.1,1-2.2,2.1-3.3,3.1c-1.2,1.1-2.6,1.9-4.3,2.2c-2.3,0.5-4.1-0.5-4.9-2.7c-0.6-1.8-0.5-3.6,0-5.4c0.7-2.7,2.1-4.9,4.1-6.7
	c0.9-0.8,1.9-1.5,2.9-2.3c0.2-0.1,0.4-0.3,0.7-0.5c-1.1-0.1-2,0.1-2.9,0.2c-3.4,0.4-6.7,1.5-10,2.5c-2.1,0.6-4.1,1.2-6.2,1.6
	c-2,0.4-3.9,0.3-5.9-0.3c-1.6-0.5-2.9-1.3-3.9-2.7c-1.1-1.6-1.3-3.2-0.7-5c0.5-1.4,1.3-2.6,2.3-3.7c2-2.1,4.4-3.4,7-4.4
	c2.7-1,5.5-1.3,8.3-1.4c4.5-0.2,9,0.5,13.4,1.4c0.8,0.2,1.7,0.3,2.6,0.5c-0.2-0.4-0.3-0.7-0.4-1c-0.7-2.1-1.2-4.1-1.1-6.3
	c0-1.2,0.3-2.3,0.7-3.3c0.9-2.2,2.8-2.9,4.9-1.7c1.3,0.7,2.3,1.7,3.2,2.9c1.1,1.4,2.1,2.9,3.1,4.4c2.7,3.9,5.6,7.6,9,10.9
	c0.4,0.4,0.9,0.8,1.5,1c1.5,0.6,3,1.2,4.5,1.9c0.2,0.1,0.5,0.2,0.8,0.3c-0.3-0.7-0.6-1.2-0.8-1.7c-0.6-1.4-1.2-2.9-1.2-4.5
	c0-0.2,0-0.4,0-0.5c0.1-1.9,1.6-3,3.5-2.4c0.7,0.2,1.3,0.6,1.8,1c1.4,1.1,2.7,2.4,3.7,3.9c1.5,2.1,2.8,4.3,4.3,6.4
	c0.8,1.2,1.7,2.3,2.5,3.4c0.7,1.1,1.8,1.5,3.1,2c-0.2-0.3-0.3-0.5-0.3-0.7c-0.5-1.1-1.1-2.3-1.6-3.4c-0.4-0.9-0.5-1.9-0.2-2.9
	c0.4-1.3,1.5-1.9,2.8-1.5c0.9,0.3,1.6,0.8,2.1,1.5c1,1.2,2,2.4,3,3.6c1.5,2,3,4,4.8,5.6c1.5,1.3,3.2,2.4,4.8,3.6
	c0.1,0.1,0.3,0.1,0.4,0.2C176,240.9,176,240.9,176.1,240.8z M139.5,229.7c0-0.1,0.1-0.1,0.1-0.2c-0.5-0.3-1.1-0.7-1.6-1
	c-2.5-1-5-2-7.5-2.9c-7.4-2.7-15-4.6-22.7-5.6c-3.7-0.5-7.3-0.5-11,0.2c-3.4,0.6-6.4,2.1-8.8,4.6c-0.6,0.6-1,1.3-1.4,2
	c-0.6,1.3-0.2,2.6,1.1,3.3c0.4,0.3,0.9,0.4,1.4,0.6c1.1,0.3,2.2,0.4,3.3,0.1c2-0.4,3.9-0.9,5.8-1.4c2.4-0.6,4.7-1.5,7.1-2
	c5-1.1,10.1-1.5,15.3-1.1c2.8,0.2,5.7,0.5,8.5,1c3.2,0.6,6.4,1.4,9.5,2.1C138.9,229.6,139.2,229.6,139.5,229.7z M132,231.3
	c-0.2-0.1-0.3-0.1-0.4-0.2c-3.8-0.9-7.7-1.3-11.6-1.6c-0.2,0-0.4,0-0.6,0c-1.7,0.4-3.3,0.8-4.7,1.8c-1.4,1-2.8,2.1-4,3.3
	c-1.7,1.6-2.8,3.6-3.1,6c-0.2,1.1-0.2,2.3,0.3,3.4c0.3,0.7,0.6,0.9,1.3,0.7c0.6-0.2,1.2-0.4,1.7-0.8c0.9-0.7,1.8-1.5,2.6-2.2
	c0.9-0.8,1.7-1.7,2.5-2.6c3.4-3.3,7.4-5.8,12.1-7C129.3,231.7,130.6,231.5,132,231.3z M131.2,222.4c0,0,0.1-0.1,0.1-0.1
	c-0.2-0.2-0.3-0.4-0.5-0.6c-2.2-2.5-4.3-5.1-6.2-7.8c-0.6-0.9-1.3-1.9-2-2.8c-0.7-0.9-1.6-1.7-2.4-2.5c-0.2-0.2-0.6-0.4-1-0.5
	c-0.6,1-0.7,1.9-0.8,2.9c-0.1,2.5,0.6,4.9,1.1,7.4c0.1,0.5,0.4,0.7,0.9,0.9c2.1,0.6,4.2,1.1,6.3,1.8
	C128.2,221.4,129.7,221.9,131.2,222.4z M149.9,236.3c-0.1,0-0.1-0.1-0.2-0.1c-2-0.4-3.9-0.7-5.9-1.1c-0.2,0-0.4,0-0.6,0.1
	c-3,1-5.6,2.7-7.6,5.1c-0.6,0.7-1,1.6-1.5,2.5c-0.3,0.6-0.4,1.2-0.3,1.9c0.1,0.7,0.3,0.9,1,0.8c0.7-0.1,1.3-0.4,1.9-0.7
	c1.1-0.7,2.2-1.4,3.3-2.2c2-1.4,4-2.8,6-4.2C147.2,237.6,148.5,237,149.9,236.3z M189.1,245.2c0-0.1,0-0.1,0-0.2
	c-0.1-0.1-0.1-0.1-0.2-0.2c-4.3-2.5-7.5-6-10.2-10.2c-1-1.6-1.9-3.2-2.9-4.7c-0.3-0.5-0.6-0.9-1-1.4c-0.5-0.6-0.9-0.5-1.2,0.2
	c-0.2,0.4-0.2,0.9-0.2,1.3c0,0.4,0.1,0.9,0.2,1.3c0.7,2.6,2.1,4.9,4,6.8c2.3,2.4,5,4.3,8,5.7c0.3,0.2,0.7,0.3,1.1,0.4
	c0.6,0.2,1.1,0.3,1.6,0.7C188.5,245.1,188.8,245.1,189.1,245.2z M169.9,242.4c0,0,0-0.1,0.1-0.1c-0.2-0.1-0.4-0.1-0.6-0.2
	c-2.3-0.7-4.6-1.4-6.8-2.1c-1.8-0.5-1.8-0.5-3.3,0.5c-1.3,0.9-2.2,2.1-3.1,3.4c-0.4,0.6-0.6,1.3-0.6,2.1c0.3,0,0.5,0,0.7,0
	c0.6-0.1,1.3-0.3,1.9-0.5c2.6-0.8,5.1-1.6,7.7-2.4C167.1,242.8,168.5,242.7,169.9,242.4z M144.2,220.5c-0.1,0-0.2,0.1-0.2,0.1
	c0.1,0.5,0.2,1.1,0.3,1.6c0.8,2.6,2.1,5,3.8,7.1c0.2,0.3,0.5,0.5,0.8,0.6c1.4,0.6,2.7,1.2,4.1,1.8c0.2,0.1,0.4,0.1,0.5,0.2
	c-1.9-2.9-3.8-5.7-5.9-8.4c-0.7-0.9-1.7-1.6-2.5-2.4C144.9,220.9,144.5,220.7,144.2,220.5z M159.9,228.2c-0.5,0.8-0.4,1.4-0.2,2
	c0.5,2.1,1.6,4,3,5.8c0.1,0.2,0.4,0.3,0.6,0.4c1.4,0.6,2.8,1.2,4.2,1.8c0.2,0.1,0.4,0.1,0.6,0.2c-0.1-0.2-0.1-0.3-0.2-0.3
	c-1.8-1.9-3.3-3.9-4.7-6c-0.6-0.9-1.3-1.8-2-2.7C160.8,228.9,160.4,228.6,159.9,228.2z"/>
<path class="st84" d="M102.3,283.3c0.3-0.2,0.7-0.3,1-0.5c2.2-1.1,4.5-1.4,6.9-0.5c1.9,0.7,3.2,2,4,3.9c1.2,3-0.8,6.3-4.1,6.7
	c-0.5,0.1-0.9,0.1-1.4,0.1c-1.2,0-2.1-0.6-2.8-1.5c-0.3-0.4-0.4-0.8-0.1-1.2c0.2-0.4,0.7-0.6,1.2-0.4c0.3,0.1,0.6,0.3,1,0.4
	c0.2,0.1,0.5,0.2,0.7,0.2c0.7-0.2,1.4-0.5,2-1.1c0.5-0.6,0.6-1.3,0.1-2.1c-0.8-1.4-2.4-2.1-4-1.8c-1.3,0.2-2.4,0.8-3.5,1.6
	c0.1,0.6,0.2,1.1,0.3,1.6c1.3,6.5,0.8,12.8-1.6,19c-0.1,0.3-0.2,0.6,0,1c2.1,3.5,4.5,6.6,8,8.7c3.1,1.8,6.4,2.6,10,2.2
	c2.3-0.2,4.6-0.7,6.8-1.5c2.5-0.9,4.7-2.3,6.5-4.2c1.1-1.2,2.1-2.5,2.4-4.1c0.4-1.5,0.2-3-0.7-4.3c-0.7-1-1.8-1.7-3.3-0.9
	c-0.6,0.3-1.1,0.7-1.6,1.1c-0.7,0.7-0.6,1.2,0,2c0.3,0.3,0.2,0.7-0.2,0.9c-0.3,0.2-0.7,0.1-1-0.1c-0.7-0.5-1.2-1.2-1.1-2.2
	c0.1-0.7,0.3-1.3,0.7-1.8c1.7-2.1,5.5-3.6,8.4-0.3c2,2.3,2.1,5,1,7.8c-0.3,0.8-0.8,1.5-1.2,2.5c0.4-0.2,0.7-0.3,0.9-0.5
	c2.3-1.3,4.5-2.7,6.8-4c3.2-1.8,6.5-3.4,10-4.3c2.3-0.6,4.5-1,6.9-0.9c4.7,0.2,8.8,1.8,12.2,5.3c1.6,1.7,2.7,3.7,3.1,6.1
	c0.6,3.7-1.5,7-5.1,7.8c-2.7,0.6-5.2-0.8-6-3.4c-0.6-1.8,0.1-3.6,1.6-4.7c0.4-0.3,0.9-0.3,1.2-0.1c0.3,0.2,0.5,0.7,0.3,1.2
	c-0.2,0.7-0.5,1.3-0.4,2.1c0,0.1,0,0.3,0,0.4c0.2,1.6,1.5,2.3,2.9,1.4c1.3-0.8,1.8-2,1.6-3.5c-0.2-1.7-1-3.2-2.1-4.5
	c-2-2.3-4.7-3.6-7.7-4.1c-2.5-0.4-4.9,0-7.3,0.6c-3.7,0.9-7.1,2.6-10.4,4.4c-3.1,1.7-6.2,3.6-9.4,5.3c-2.4,1.3-4.9,2.5-7.6,3.3
	c-2.4,0.7-4.9,1-7.4,0.9c-0.7,0-1.5-0.1-2.2,0c-2.2,0.1-4.3-0.3-6.4-0.9c-3.6-1-6.4-3.1-9-5.7c-1-1.1-1.9-2.3-2.8-3.5
	c-0.2-0.2-0.3-0.5-0.6-0.8c-0.2,0.3-0.4,0.6-0.6,0.9c-1.4,2.2-3.1,3.9-5.5,4.9c-1.7,0.7-3.4,0.7-5-0.2c-0.8-0.5-1.4-1.1-1.5-2.1
	c0-0.4,0.1-0.8,0.2-1.1c0.3-0.5,0.8-0.5,1.1,0.1c0,0.1,0,0.1,0.1,0.2c0.6,1.3,1.6,1.8,2.9,1.4c1-0.3,1.9-0.8,2.7-1.5
	c1.8-1.4,2.8-3.3,3.7-5.3c0.2-0.4,0-0.6-0.2-0.9c-1-2.2-1.9-4.4-2.4-6.7c-1.1-4.3-0.8-8.5,1.3-12.5c0.6-1.1,1.3-2.1,2.1-3.1
	c0.3-0.4,0.4-0.7,0.2-1.2c-1-2.1-1.7-4.3-2.9-6.3c-2.7-4.7-5.9-9-10-12.6c-2-1.8-4.2-3.3-6.8-4.3c-1.2-0.4-2.5-0.6-3.7-0.2
	c-0.5,0.1-1,0.3-1.3,0.7c-1.9,1.7-2.7,3.9-2.4,6.4c0.1,0.8,0.6,1.3,1.2,1.7c0.6,0.3,1.3,0.3,1.8,0c0.5-0.3,0.8-0.7,0.7-1.4
	c-0.1-0.3-0.1-0.6-0.1-1c0-0.5,0.2-0.9,0.7-1.1c0.5-0.2,0.9-0.1,1.3,0.3c0.9,1,1.5,2.3,0.7,3.8c-1,2-2.7,2.9-4.9,2.8
	c-2.3-0.2-3.8-1.5-4.6-3.5c-0.5-1.3-0.5-2.6-0.3-3.9c0.4-2.3,1.4-4.4,3.1-6c1.3-1.2,2.8-1.9,4.6-2c1.8-0.1,3.4,0.1,5.1,0.8
	c2.7,1.1,5.1,2.7,7.2,4.7c3.1,2.8,5.8,6,8.2,9.4c2.1,3,3.9,6.2,5.1,9.6C102.1,282.8,102.2,283,102.3,283.3z M100.5,290.3
	c-2.5,3.7-2.3,9.4-0.4,13.5C101.3,299.4,101.3,295,100.5,290.3z"/>
<path class="st89" d="M202.5,353.3c-1.8-0.5-3.5-1-5.2-1.4c-5.3-1.4-10.5-2.7-15.8-4c-4.3-1-8.6-1.7-13-2
	c-6.8-0.5-13.3,0.7-19.7,2.9c-3.4,1.2-6.7,2.6-10,4.3c-0.3,0.2-0.7,0.3-1,0.3c-0.2,0-0.4-0.1-0.5-0.3c0-0.1,0.1-0.4,0.2-0.5
	c0.7-0.5,1.4-1.1,2.2-1.5c5.5-3,11.3-5.1,17.4-6.3c2.5-0.5,5-0.8,7.5-0.8c2.5,0,5,0.1,7.5,0.4c7.4,0.8,14.5,2.6,21.6,4.6
	c3.5,0.9,6.9,1.9,10.4,2.8c0.5,0.1,0.9,0.1,1.3-0.2c2.9-1.6,5.8-3.2,8.8-4.7c2.1-1.1,4.3-1.9,6.7-2.3c1.9-0.3,3.7-0.4,5.6,0.3
	c1,0.3,1.9,0.8,2.7,1.6c2,1.8,2.1,4.6,0.2,6.6c-1.6,1.6-3.7,2.4-5.9,2.9c-2.5,0.5-5.1,0.5-7.6,0.2c-3.3-0.3-6.6-1-9.8-1.7
	c-0.4-0.1-0.7-0.1-1.1,0.1c-2.1,1.3-4.3,2.5-6.4,3.8c-0.1,0-0.1,0.1-0.3,0.2c0.2,0.1,0.3,0.2,0.5,0.2c5,1,10,2,15,2.9
	c3.5,0.7,7.1,1.1,10.7,1.4c4.2,0.4,8.5,0.6,12.7,0.5c8.6-0.3,17-1.8,25-5.3c2.3-1,4.5-2.3,6.5-3.8c0.6-0.5,1.3-0.9,1.9-1.3
	c0.1-0.1,0.3-0.2,0.5-0.2c0.4-0.2,0.8-0.1,1,0.2c0.3,0.4,0.2,0.7-0.1,1c-0.4,0.4-0.8,0.8-1.2,1.1c-3.4,2.9-7.3,4.9-11.5,6.4
	c-4.7,1.7-9.7,2.8-14.7,3.4c-4.5,0.6-8.9,0.6-13.4,0.5c-8.6-0.3-17-1.5-25.3-3.3c-3.3-0.7-6.7-1.3-10-2c-0.6-0.1-1,0-1.5,0.3
	c-3.9,2.1-7.9,3.9-12.1,5.2c-3.3,1-6.7,1.7-10.2,1.6c-1.6-0.1-3.2-0.3-4.6-0.9c-0.8-0.3-1.5-0.8-2.1-1.4c-1.5-1.6-1.6-3.6-0.2-5.3
	c1-1.3,2.3-2.2,3.8-2.8c3.1-1.4,6.4-1.7,9.8-1.5c5.2,0.4,10.3,1.4,15.3,2.3c0.6,0.1,1.1,0.1,1.7-0.3c2-1.2,4-2.3,6-3.5
	C201.9,353.7,202.1,353.5,202.5,353.3z M191.7,359.4c-0.4-0.1-0.6-0.2-0.7-0.2c-2.4-0.4-4.7-0.8-7.1-1.2c-2.6-0.4-5.3-0.8-8-0.7
	c-2.3,0-4.5,0.6-6.6,1.6c-1,0.5-1.9,1.1-2.5,2c-0.6,0.8-0.6,1.8,0.1,2.5c0.3,0.4,0.7,0.7,1.2,0.9c0.7,0.3,1.5,0.6,2.3,0.7
	c2.4,0.5,4.9,0.2,7.3-0.3c3.8-0.7,7.3-2.1,10.8-3.7C189.4,360.6,190.5,360,191.7,359.4z M208.2,352.6c1.9,0.4,3.7,0.7,5.5,1
	c1,0.2,2,0.3,3.1,0.4c2.2,0.1,4.4,0.2,6.6-0.3c1.6-0.4,3.1-0.9,4.3-1.9c1.6-1.4,1.5-3.2-0.2-4.4c-1-0.7-2.2-1.1-3.5-1.1
	c-1.8-0.1-3.6,0.4-5.3,1c-3.6,1.3-6.9,3.2-10.2,5.1C208.5,352.4,208.4,352.4,208.2,352.6z"/>
<path class="st90" d="M299.6,278.1c0.3,0.4,0.5,0.6,0.6,0.8c0.4,0.6,0.8,1.1,1.1,1.7c0.7,1.5,0.5,3-0.4,4.3
	c-1.1,1.6-2.6,2.7-4.4,3.5c-1.9,0.8-3.9,1.2-5.9,1.4c-2.6,0.2-5.1,0-7.6-0.8c-1-0.3-2-0.8-2.9-1.5c-1.8-1.6-1.8-3.7-0.1-5.4
	c0.9-0.9,2-1.4,3.1-1.9c2.5-1.1,5.1-1.9,7.8-2.5c0.6-0.1,1.1-0.2,1.7-0.5c-0.4-0.1-0.8-0.1-1.2-0.2c-3.6-0.3-7.1,0.1-10.5,1.1
	c-4,1.1-7.9,2.4-11.8,3.7c-4.4,1.4-8.8,2.9-13.3,3.9c-4.7,1-9.4,1.9-14.2,2.4c-5.1,0.5-10.2,0.5-15.2-0.5c-4.3-0.8-8.4-2.3-12.1-4.8
	c-1.7-1.2-3.2-2.6-4.6-4.1c-0.2-0.2-0.3-0.4-0.4-0.6c-0.2-0.3-0.1-0.6,0.1-0.9c0.3-0.3,0.6-0.3,1-0.1c0.2,0.1,0.3,0.3,0.4,0.4
	c4.2,4.8,9.7,7.3,15.8,8.3c3.7,0.6,7.4,0.8,11.1,0.6c5.3-0.2,10.5-1.1,15.6-2.1c5.2-1.1,10.2-2.8,15.3-4.4c3.8-1.2,7.6-2.5,11.4-3.6
	c3.2-0.9,6.4-1.4,9.8-1.3c2.4,0.1,4.7,0.4,6.9,1.4c0.4,0.2,0.8,0.2,1.2,0.2c10.3-0.8,20.3,0.5,30.2,3.4c3,0.9,5.9,2.1,8.6,3.8
	c1.9,1.2,3.6,2.5,5.1,4c1.5,1.4,2.6,3.1,3.4,5c0.1,0.1,0.2,0.3,0.2,0.4c0,0.1,0,0.3-0.1,0.4c-0.1,0.1-0.4,0.1-0.5,0
	c-0.2-0.1-0.3-0.3-0.4-0.5c-3-5-7.5-8.2-12.7-10.3c-4.2-1.7-8.6-2.8-13.1-3.5c-5.5-0.9-11.1-1.4-16.7-1.3
	C301.3,278.1,300.5,278.1,299.6,278.1z M288.9,288.1c2.1-0.1,4.2-0.3,6.3-1.1c1.6-0.6,3-1.5,4-2.9c0.7-0.9,0.8-1.9,0.3-3
	c-0.5-1-1.3-1.8-2.2-2.4c-0.4-0.2-0.7-0.3-1.2-0.2c-1.5,0.3-3.1,0.5-4.6,0.8c-2.7,0.6-5.3,1.3-7.8,2.5c-0.9,0.4-1.7,0.9-2.4,1.5
	c-1.1,0.9-1,2,0.1,2.8c0.6,0.4,1.2,0.8,1.9,1C285,287.9,287,288.1,288.9,288.1z"/>
<g>
	<path class="st91" d="M258.3,110.7c-0.4-0.1-0.6-0.2-0.9-0.3c-1.2-0.5-2-1.7-1.8-2.9c0.2-1.2,1.2-2.2,2.6-2.3
		c1.3-0.2,2.4,0.2,3.3,1.1c2,2.1,1.9,5.2-0.4,7c-2.1,1.6-4.5,2.1-7,1.7c-1-0.2-2.1-0.5-3-0.9c-2-0.9-3.1-2.7-3.4-4.9
		c-0.2-1.8,0.2-3.4,1.2-4.9c0.8-1.2,1.7-2.2,2.8-3.1c2.7-2.1,5.8-3.5,9.1-4.5c1.6-0.5,3.3-0.8,5-1.1c0.3-0.1,0.6-0.1,1.1-0.2
		c-0.2-0.3-0.4-0.6-0.6-0.9c-1.3-1.9-2.1-4-2.2-6.3c-0.3-5.2,3.8-10.7,10.1-10.8c1.9,0,3.7,0.4,5.4,1.2c1.9,1,3.2,2.4,4.1,4.4
		c1.1,2.5,0.3,5.3-1.8,6.9c-2.1,1.7-4.5,2.1-7.1,1.1c-2.5-1-4.4-2.6-5.3-5.3c-0.1-0.2-0.1-0.5-0.2-0.7c0-0.2-0.1-0.4-0.1-0.7
		c-0.2,0.2-0.3,0.4-0.4,0.5c-0.9,1.6-0.9,3.3-0.4,5c0.5,1.8,1.6,3.3,2.8,4.8c0.2,0.3,0.5,0.3,0.9,0.3c1.2-0.1,2.5-0.2,3.7-0.1
		c3.7,0.1,7.4,0.2,11,0.5c1.2,0.1,2.2-0.2,3.1-1c1.1-1,2.2-2,3.3-3c0.1-0.1,0.2-0.2,0.3-0.3c1.2-1.2,2.3-1.1,3.2,0.3
		c0.1,0.2,0.3,0.4,0.4,0.6c0.9,1.9,2.4,3.3,4.1,4.5c0.3,0.2,0.6,0.3,1,0.3c3.4,0.3,6.8,0.7,10.2,1c4.9,0.5,9.8,0.6,14.7,0.5
		c2.6-0.1,5.3-0.3,7.9-0.6c4.2-0.4,8.2-1.3,12.2-2.7c0.4-0.1,0.7-0.2,1.1-0.3c0.2,0,0.6,0.1,0.7,0.2c0.1,0.2,0.1,0.6,0,0.8
		c-0.1,0.2-0.4,0.4-0.7,0.6c-1.6,1.1-3.5,1.7-5.3,2.3c-3.1,0.9-6.2,1.4-9.3,1.8c-6.1,0.8-12.2,0.9-18.2,0.6c-4.5-0.2-9-0.6-13.5-1
		c-3.3-0.3-6.6-0.7-9.9-0.9c-3.5-0.3-7-0.6-10.6-0.8c-1.8-0.1-3.7-0.1-5.6-0.1c-0.1,0-0.2,0-0.5,0.1c0.4,0.3,0.7,0.5,0.9,0.6
		c3.3,2.1,6.9,3.5,10.6,4.7c6,1.9,12.1,3.2,18.3,4c4.5,0.6,9,0.7,13.6,0.6c2.6-0.1,5.2-0.1,7.8-0.2c2.3-0.1,4.6-0.3,6.9-0.5
		c2.2-0.2,4.3-0.5,6.5-0.8c4.2-0.7,8.2-1.8,12.1-3.4c1.4-0.6,2.7-1.4,4-2.2c0.6-0.4,1.2-1,1.7-1.5c0.5-0.4,0.8-0.5,1.2-0.2
		c0.4,0.3,0.6,0.8,0.4,1.3c-0.3,1-0.9,1.8-1.7,2.5c-1.3,1.1-2.7,2-4.3,2.8c-5.4,2.5-11.1,4.1-17.1,4.8c-3.8,0.4-7.6,0.8-11.4,1.2
		c-1.8,0.2-3.6,0.2-5.5,0.3c-2.3,0.1-4.5,0.2-6.8,0.1c-3.5-0.1-7-0.4-10.5-0.9c-4-0.6-8-1.4-11.9-2.5c-0.2-0.1-0.5-0.1-0.8,0
		c-0.7,0.2-1.4,0.4-2.1,0.6c-1.2,0.2-2.3,0.5-3.5,1c-0.4,0.2-0.9,0.4-1.4,0.4c-1.1,0.1-1.7-0.4-1.8-1.4c-0.2-1-0.4-2-0.5-3
		c-0.1-0.8-0.5-1.3-1.3-1.6c-3.2-1.5-6.2-3.3-8.7-5.8c-0.3-0.3-0.6-0.4-1-0.4c-4.1,0.5-8.2,1.4-11.9,3.3c-1.3,0.7-2.5,1.4-3.5,2.4
		c-0.6,0.5-1.1,1.2-1.6,1.8c-0.7,0.9-0.8,1.9-0.7,3c0.1,0.7,0.4,1.2,1,1.6C253.7,111.5,256.5,112,258.3,110.7z"/>
	<path class="st91" d="M250,83.4c-0.3,0.8-0.2,1.5,0,2.1c1,2.8,2.7,5,5.4,6.5c1.2,0.6,2.4,1,3.7,1c0.4,0,0.8,0.1,1.1,0.2
		c0.6,0.3,0.6,1,0.1,1.3c-0.4,0.2-0.9,0.3-1.3,0.3c-2.1,0.1-4.2,0-6.3-0.4c-3.3-0.6-6.5-1.6-9.5-3.2c-5.4-2.9-9.4-7.1-11.6-12.9
		c-1-2.7-1.3-5.4-0.4-8.1c1-3.2,3.8-5.3,7.1-5.4c2.8-0.1,5.8,1.5,6.7,4.7c0.7,2.6-1.3,5.2-3.9,5.1c-1.9-0.1-3.6-1.6-4-3.5
		c-0.1-0.7-0.1-1.4-0.1-2.2c-1.1,0.4-1.9,1.1-2.3,2.2c-0.5,1.2-0.7,2.5-0.5,3.8c0.2,2.3,1.2,4.3,2.4,6.4c0.6-0.1,1.1-0.2,1.7-0.4
		c0.6-0.2,1.2-0.4,1.8-0.6c1-0.3,1.7,0.1,1.9,1.1c0.1,0.5,0.1,0.9,0.1,1.4c0,1.5,0.2,3,0.6,4.4c0.1,0.3,0.2,0.6,0.5,0.8
		c2.6,1.7,5.4,2.9,8.4,3.7c0,0,0.1,0,0.2,0c-0.2-0.2-0.4-0.5-0.6-0.7c-1.3-1.4-2.4-2.9-3.1-4.7c-0.7-1.8-0.7-3.6,0.4-5.3
		c1.1-1.6,3.1-2.4,5-1.9c1.4,0.4,2.5,1.9,2.4,3.3c-0.1,1.3-1.1,2.5-2.6,2.7c-1.1,0.2-2-0.2-2.7-1C250.4,83.9,250.3,83.7,250,83.4z"
		/>
	<path class="st91" d="M292.6,75.2c-0.1-0.5-0.1-0.8-0.2-1.2c-0.2-1.7,0.1-3.2,1.2-4.5c0.2-0.2,0.4-0.4,0.6-0.5
		c0.5-0.3,1-0.4,1.5-0.1c0.5,0.3,0.7,0.8,0.6,1.3c-0.1,0.6-0.2,1.2-0.4,1.7c-0.5,1.8-0.7,3.5-0.3,5.3c0.3,1.4,1.2,2.6,2,3.9
		c0.1-0.5,0.2-0.8,0.3-1.1c0.9-3.5,4.7-5.8,8.2-4.9c1.4,0.3,2.5,1.1,3.2,2.4c0.8,1.4,0.6,2.9-0.6,4c-2,2-5.3,1.4-6.6-1.1
		c-0.1-0.3-0.2-0.5-0.4-0.9c-0.6,0.7-0.9,1.5-0.9,2.3c0,2.3,0.9,4.4,2.5,6c0.9,1,2,1.7,3.2,2.3c3.1,1.5,6.4,2.6,9.8,3.3
		c3.4,0.7,6.8,1.3,10.3,1.3c0.3,0,0.5,0.1,0.8,0.1c0.4,0.1,0.7,0.3,0.7,0.7c0,0.4-0.2,0.6-0.6,0.7c-0.2,0.1-0.4,0.2-0.7,0.2
		c-0.9,0.1-1.8,0.2-2.7,0.2c-6.5-0.1-12.7-1.3-18.6-4c-2.1-0.9-3.9-2.3-5.5-4c-1.3-1.4-2.4-2.8-3.5-4.3c-0.9-1.2-1.8-2.3-2.7-3.3
		c-1.5-1.6-3.2-2.8-5.3-3.5c-0.8-0.3-1.6-0.7-2.3-1c-0.3-0.1-0.6-0.3-0.8-0.6c-0.7-0.6-0.5-1.4,0.3-1.9c1-0.6,2.2-0.8,3.3-0.4
		c0.9,0.3,1.7,0.7,2.5,1.1C292.1,74.9,292.3,75,292.6,75.2z"/>
	<path class="st91" d="M263.3,123.5c-1.6-0.2-2.9-0.8-4.1-1.7c-0.6-0.4-1.1-0.9-1.3-1.6c-0.3-0.8,0-1.3,0.8-1.3c0.4,0,0.8,0,1.2,0.1
		c3.4,0.5,6.5-0.3,9.7-1.5c0.4-0.2,0.8-0.4,1.2-0.6c3.1-1.8,6.4-3.1,10-3.6c2.4-0.4,4.9-0.4,7.3-0.2c0.8,0.1,1.5,0.1,2.3,0.3
		c0.3,0.1,0.7,0.2,1,0.4c0.4,0.3,0.3,0.8-0.1,1c-0.3,0.1-0.6,0.2-0.9,0.2c-1.4,0.1-2.8,0.1-4.1,0.2c-1.6,0.1-3.2,0.2-4.7,0.4
		c-2.7,0.3-4.9,2.6-5.4,5.3c0.2,0,0.4-0.1,0.6-0.1c2.3-0.5,4.2,1.6,3.6,3.8c-0.7,2.5-3.1,3.4-5.2,1.9c-1.7-1.2-2.2-2.9-2-4.9
		c0.1-0.7,0.3-1.4,0.5-2.3c-0.3,0.1-0.5,0.2-0.7,0.3c-2.8,1.6-4.8,3.9-6.3,6.6c-0.8,1.3-1.3,2.7-2,4.1c-0.2,0.3-0.3,0.7-0.5,0.9
		c-0.4,0.6-1,0.6-1.3-0.1c-0.4-1-0.6-2-0.5-3.1c0.1-1.4,0.4-2.8,1-4.2C263.2,123.8,263.2,123.7,263.3,123.5z"/>
</g>
<g>
	<path class="st92" d="M85.7,157.1c1.1-0.6,2-1.2,3-1.7c0.3-0.2,0.6-0.3,0.9-0.4c0.8-0.2,1.4,0.3,1.4,1.1c0,0.4-0.2,0.9-0.3,1.3
		c-0.3,1.2-0.5,2.3-0.8,3.5c-0.2,0.9-0.1,1.8,0.1,2.6c0.2,1.4,0.8,2.5,1.9,3.4c1.3,1.1,2.8,2,4.4,2.5c1.1,0.3,2.4,0.4,3.6,0.4
		c2.9,0.1,5.8-0.2,8.6-0.6c10.5-1.4,20.8-3.7,31-6.5c7-1.9,14-4,21-6c5.8-1.6,11.5-3.2,17.4-4.5c3.3-0.7,6.6-0.9,9.9-0.8
		c3.1,0.2,6,1,8.4,3c0.7,0.6,1.4,1.3,2,2c0.2,0.2,0.4,0.6,0.1,0.9c-0.3,0.3-0.6,0.3-1,0.1c-0.4-0.2-0.9-0.5-1.3-0.8
		c-2.3-1.6-4.9-2.2-7.6-2.5c-0.7-0.1-1.1,0.2-1.5,0.7c-1.8,1.9-2.3,4.2-2.7,6.6c-0.2,1.5-0.5,2.9-0.9,4.3c-0.4,1.7-1.4,3.1-2.8,4.2
		c-0.7,0.6-1.6,1-2.5,1.1c-0.4,0.1-0.9,0-1.3-0.1c-0.8-0.2-1.1-1-0.9-1.8c0.1-0.3,0.2-0.6,0.3-0.8c0.8-1.9,1.3-3.8,1.6-5.9
		c0.4-2.6,1.4-5,3.2-6.9c0.2-0.2,0.4-0.4,0.5-0.8c-0.4,0.1-0.7,0.1-1.1,0.2c-1.1,0.3-2.2,0.6-3.4,0.8c-0.6,0.1-1,0.4-1.2,0.9
		c-0.3,0.9-0.7,1.8-0.9,2.7c-0.6,2.6-1.2,5.2-2.2,7.7c-1,2.7-2.6,4.8-4.9,6.4c-0.9,0.6-1.9,1-3,1.2c-1.1,0.2-1.7-0.5-1.4-1.5
		c0.5-1.9,0.9-3.8,1.4-5.7c0.8-3.4,2.3-6.4,4.5-9.1c0.1-0.1,0.1-0.2,0.2-0.3c0,0,0-0.1,0-0.2c-0.2,0-0.4,0-0.6,0.1
		c-1.8,0.5-3.6,1.1-5.4,1.6c-0.5,0.2-1,0.4-1.3,0.8c-1.9,1.8-3.5,3.8-4.5,6.3c-0.7,1.6-1.5,3.2-2.2,4.8c-1.6,3.3-4.1,5.5-7.6,6.5
		c-0.9,0.2-1.8,0.5-2.7,0.8c-0.1,0-0.2,0-0.3,0.1c-0.6,0.1-1.2,0.2-1.7-0.4c-0.4-0.6-0.2-1.1,0.1-1.6c0.9-1.5,1.3-3.1,1.7-4.7
		c0.6-2.5,1-5.1,2.6-7.4c-0.5,0.1-0.7,0.2-1,0.2c-5.9,1.5-11.7,3.1-17.6,4.5c-5.6,1.3-11.3,2.5-17.1,3.2c-3.7,0.5-7.4,0.9-11.2,0.9
		c-4.3,0-8.6-0.6-12.6-2.4c-0.6-0.3-1.2-0.6-1.8-0.9c-3.8-2-6.1-5.2-7-9.4c-0.6-3-0.5-5.8,0.9-8.5c1.5-2.9,3.7-5,7-5.6
		c2.4-0.5,4.6,0,6.4,1.8c0.2,0.2,0.5,0.4,0.7,0.7c0.4,0.4,0.5,0.9,0.1,1.3c-0.3,0.4-0.9,0.5-1.4,0.1c-0.1-0.1-0.2-0.2-0.3-0.3
		c-0.9-0.8-1.9-0.9-3-0.6c-1.7,0.4-2.8,1.5-3.5,3C85.9,154,85.6,155.5,85.7,157.1z"/>
	<path class="st92" d="M204.7,165.4c-0.2,0.3-0.3,0.4-0.4,0.5c-1.5,2.7-4,4.1-6.8,4.9c-1.6,0.4-3.2,0.6-4.9,0.2
		c-4.5-0.9-7.1-6.1-5.3-10.3c1.4-3.2,5.1-4.4,7.9-3c1.9,0.9,2.8,3.2,2,5.2c-0.8,2-3.1,3.1-5.1,2.4c-0.6-0.2-1.1-0.6-1.7-0.9
		c0,0.1,0,0.3,0,0.4c0.4,1.7,1.7,3,3.5,3.1c2.4,0.2,4.6-0.6,6.5-2.2c0.6-0.5,0.9-1.2,1-1.9c0.4-1.9,0.5-3.9,0.4-5.9
		c0-0.4-0.2-0.8-0.4-1.1c-0.8-1.5-1.7-3-2.5-4.6c-0.7-1.4-1.2-2.8-1.4-4.3c-0.1-0.5-0.1-1,0.1-1.5c0.4-1.9,2.2-2.2,3.4-1.5
		c0.8,0.4,1.4,1.1,1.9,1.8c0.3,0.4,0.5,0.8,0.8,1.2c0.2-0.2,0.3-0.4,0.4-0.6c0.9-1.7,2.1-3,3.8-4c0.6-0.3,1.2-0.6,1.9-0.7
		c1.6-0.3,2.9,0.7,3.1,2.3c0.1,0.8,0.1,1.6-0.1,2.4c-0.6,3.1-1.9,6-3.7,8.6c-1.3,1.8-1.6,3.8-1.8,5.9c-0.2,2,0.6,3.6,2,4.9
		c0.9,0.9,2,1.5,3.2,1.9c2.4,0.8,5.1-0.9,5.5-3.4c0-0.1,0-0.2,0-0.4c-0.2,0.1-0.3,0.1-0.4,0.2c-1,0.6-2,0.6-3,0.3
		c-2.2-0.8-3.5-3.1-2.8-5.3c0.6-2.2,2.9-3.5,5.2-3c1.8,0.4,3.1,1.5,3.8,3.1c0.8,1.7,1.2,3.6,0.9,5.6c-0.3,2.8-2.9,5.7-6.3,6.3
		c-1.9,0.3-3.7,0-5.5-0.9C207.5,169.9,205.7,168.1,204.7,165.4z"/>
	<path class="st92" d="M179.8,144.6c-0.3-0.4-0.6-0.7-0.7-1c-0.4-0.7-1-1.4-1.2-2.2c-0.8-2.2,0.8-4,3.1-3.4c0.8,0.2,1.5,0.5,2.2,0.9
		c1.4,0.7,2.5,1.7,3.6,2.8c1.4,1.4,2.9,2.8,4.3,4.2c1.4,1.4,2.9,2.5,4.5,3.5c0.5,0.3,0.9,0.6,1.4,0.9c0.6,0.5,0.8,0.9,0.6,1.3
		c-0.2,0.4-0.7,0.7-1.4,0.5c-0.8-0.1-1.6-0.3-2.4-0.6c-2.4-0.8-4.9-1.1-7.3-1.3c-2.4-0.2-4.8-0.3-7.2-0.5c-1.6-0.1-3.2-0.5-4.7-1.1
		c-0.5-0.2-0.9-0.4-1.3-0.7c-0.8-0.6-0.8-1.5-0.1-2.2c0.4-0.3,0.9-0.6,1.3-0.8c1.3-0.5,2.7-0.6,4.2-0.4
		C178.9,144.5,179.2,144.5,179.8,144.6z"/>
	<path class="st92" d="M200.2,136.3c0-1.3,1-2.5,2.2-2.8c1.1-0.2,2.2,0.2,2.6,1.3c0.3,0.6,0.5,1.2,0.6,1.8c0.3,1.8-1.7,3.3-3.5,2.7
		C201.1,138.8,200.2,137.5,200.2,136.3z"/>
	<path class="st92" d="M193.8,145.1c-1.5-0.1-3-1.7-2.9-3.2c0.1-1.5,1.4-2.6,2.9-2.5c1.5,0.1,2.8,1.4,2.7,2.8
		C196.5,143.7,195.1,145.1,193.8,145.1z"/>
</g>
<g>
	<path class="st93" d="M230.6,318.6c-0.1-0.4-0.2-0.8-0.2-1.1c-0.5-2.5-0.1-4.9,1.3-7.1c1.3-1.9,3.1-2.9,5.3-3.3
		c1-0.2,2-0.1,2.9,0.3c0.6,0.2,0.8,0.6,0.8,1c-0.1,0.5-0.4,0.7-0.9,0.8c-0.3,0-0.6,0.1-1,0.1c-2.8,0.1-4.7,2-5.2,4.7
		c-0.3,1.4-0.2,2.7,0.4,4.1c0.3,0,0.7,0,1-0.1c3.8-0.7,7.5-1.4,11.3-2.1c6.4-1.3,12.7-2.6,19.1-3.9c3.8-0.7,7.6-1.3,11.4-1.9
		c3.5-0.5,7.1-0.9,10.7-1.4c1.3-0.2,2.6-0.2,4-0.4c0.4,0,0.8-0.1,1.2-0.3c3.6-1.5,7.3-2.8,11.1-3.7c3.3-0.7,6.6-0.9,10-0.5
		c10.7,1.3,19.4,6.3,26.3,14.5c1.2,1.4,2.2,3,2.6,4.8c0.1,0.4,0.2,0.7,0.2,1.1c0,0.5-0.2,0.9-0.7,1c-0.5,0.1-0.8-0.1-1-0.5
		c-0.1-0.1-0.2-0.3-0.3-0.4c-2.1-3.9-5.2-7-8.8-9.6c-4.5-3.3-9.4-5.7-14.9-6.8c-3.8-0.8-7.5-0.9-11.3-0.1c-0.1,0-0.3,0.1-0.4,0.3
		c0.8,0.1,1.5,0.2,2.3,0.3c6.6,0.9,13,2.6,18.8,6c3,1.7,5.8,3.6,8.1,6.2c0.9,1,1.8,2,2.6,3.1c0.6,0.7,0.6,1.5,0.1,2
		c-0.5,0.6-1.4,0.7-2.2,0.1c-0.9-0.7-1.8-1.5-2.7-2.3c-5.3-4.8-11.5-7.9-18.5-9.5c-3.6-0.8-7.2-1.5-10.9-1.7
		c-3.6-0.2-7.1-0.1-10.7,0.2c-0.4,0-0.7,0.2-1.1,0.4c-4.5,2.3-9,4.6-13.5,7c-5.3,2.8-10.7,5.4-16.4,7.2c-3.9,1.2-7.9,2.1-12,2.2
		c-3.3,0.1-6.6-0.2-9.7-1.4c-2.8-1.1-5.2-2.6-7-5c-0.2-0.3-0.5-0.4-0.9-0.4c-1.6,0.2-3.2,0.4-4.8,0.4c-2,0.1-4.1,0.2-6.1,0.1
		c-2-0.1-4-0.3-6-0.8c-1.9-0.5-3.6-1.2-5.2-2.3c-2.3-1.5-3.8-3.6-4.1-6.4c-0.3-2.9,0.6-5.4,2.8-7.3c1.7-1.5,3.7-1.9,5.9-1.1
		c0.4,0.1,0.8,0.4,1.1,0.7c0.4,0.4,0.1,0.9-0.4,0.9c-0.3,0-0.6-0.1-1-0.1c-1.1-0.1-2.1-0.1-3.1,0.5c-1.5,0.9-2.2,2.4-2.4,4
		c-0.3,2.5,0.8,4.4,2.8,5.8c1.7,1.1,3.7,1.7,5.7,2c3.9,0.5,7.7,0.4,11.6-0.1C229.4,318.7,229.9,318.6,230.6,318.6z M280.6,313.8
		c-2.4,0.4-4.6,0.7-6.8,1c-5.7,0.8-11.3,2-16.9,3.1c-6.6,1.3-13.1,2.6-19.7,4c-0.2,0-0.4,0.1-0.6,0.2c0.2,0.2,0.3,0.3,0.5,0.4
		c1.7,1.4,3.7,2.3,5.9,2.7c3.1,0.6,6.3,0.6,9.5,0.1c4.5-0.6,8.8-2,12.9-3.7c5.2-2.1,10.1-4.9,15-7.5
		C280.4,314.1,280.4,314,280.6,313.8z"/>
	<path class="st93" d="M300.5,314.2c6.4,0.2,12.3,1.5,17.9,3.9c4.3,1.8,8.4,3.9,12.3,6.6c1.4,1,2.8,2,4,3.3c0.2,0.2,0.4,0.5,0.6,0.8
		c0.4,0.8-0.1,1.6-1,1.6c-0.3,0-0.7-0.1-1-0.2c-0.5-0.3-1-0.6-1.5-0.9c-6-3.9-12.4-6.9-19.1-9.2c-3-1-6.1-1.6-9.2-2
		c-5.3-0.6-10.4-0.1-15.2,2.4c-2.1,1.1-3.4,2.7-3.9,5.1c-0.1,0.8-0.1,1.5,0.2,2.3c0.3,0.8,0.7,1.3,1.5,1.6c0.4,0.1,0.8,0.2,0.8,0.8
		c0,0.4-0.5,0.7-1,0.8c-1.1,0.1-2-0.3-2.7-1.1c-1.5-1.8-1.8-3.8-1.3-6c0.6-2.4,1.9-4.3,4-5.6c3.4-2.1,7.1-3.5,11.2-3.8
		C298.3,314.4,299.5,314.3,300.5,314.2z"/>
	<path class="st93" d="M340.7,326.8c0.7,0,1.4,0.2,2,0.6c1,0.6,1.4,1.7,1,2.7c-0.4,1-1.4,1.8-2.5,1.8c-1.2,0.1-2.2-0.5-2.9-1.4
		c-1-1.3,0-3.4,1.7-3.7C340.3,326.8,340.5,326.8,340.7,326.8z"/>
	<path class="st93" d="M348.3,331.7c-1,0-1.8-0.8-1.8-1.7c0-1,0.8-1.8,1.8-1.8c0.9,0,1.7,0.8,1.7,1.7
		C350,330.9,349.2,331.7,348.3,331.7z"/>
</g>
</svg>
